<svg width="612" height="792" xmlns="http://www.w3.org/2000/svg">

 <g>
  <title>background</title>
  <rect fill="none" id="canvas_background" height="402" width="582" y="-1" x="-1"/>
 </g>
 <g>
  <title>Layer 1</title>
  <path fill="#93939e" id="svg_2" d="m266.3,141c0,0 -12.3,0 -12.3,12.3l0,77.8c0,0 0,12.3 12.3,12.3l77.8,0c0,0 12.3,0 12.3,-12.3l0,-77.8c0,0 0,-12.3 -12.3,-12.3l-77.8,0l0,0z" class="st0"/>
  <path fill="#93939e" id="svg_3" d="m266.3,345.8c0,0 -12.3,0 -12.3,12.3l0,77.8c0,0 0,12.3 12.3,12.3l77.8,0c0,0 12.3,0 12.3,-12.3l0,-77.8c0,0 0,-12.3 -12.3,-12.3l-77.8,0l0,0z" class="st0"/>
  <path fill="#93939e" id="svg_4" d="m266.3,550.6c0,0 -12.3,0 -12.3,12.3l0,77.8c0,0 0,12.3 12.3,12.3l77.8,0c0,0 12.3,0 12.3,-12.3l0,-77.8c0,0 0,-12.3 -12.3,-12.3l-77.8,0l0,0z" class="st0"/>
 </g>
</svg>